<svg version="1.0" preserveAspectRatio="xMidYMid meet" viewBox="218.376 76.119749342175 405 652.8599943580001" zoomAndPan="magnify" xmlns:xlink="http://www.w3.org/1999/xlink" xmlns="http://www.w3.org/2000/svg" style="max-height: 500px" width="405" height="652.8599943580001"><defs><clipPath id="9fca0d7b3b"><path clip-rule="nonzero" d="M 87 3 L 305 3 L 305 308 L 87 308 Z M 87 3"/></clipPath><clipPath id="2337e7a038"><path clip-rule="nonzero" d="M 144.160156 300.148438 C 142.894531 273.6875 140.621094 271.582031 139.527344 268.632812 C 138.515625 266.019531 138.9375 262.734375 137.335938 260.710938 C 135.734375 258.605469 131.941406 258.351562 129.582031 256.414062 C 127.054688 254.304688 125.453125 250.429688 123.09375 248.15625 C 120.988281 246.214844 118.460938 245.289062 116.4375 243.4375 C 114.246094 241.667969 112.898438 239.476562 110.285156 237.367188 C 106.492188 234.417969 99.078125 231.722656 95.285156 228.097656 C 92.167969 225.234375 89.640625 221.609375 88.375 218.410156 C 87.363281 215.796875 87.28125 213.4375 87.363281 210.742188 C 87.449219 207.789062 87.785156 204 89.386719 201.386719 C 90.988281 198.773438 94.695312 197.511719 96.886719 195.234375 C 98.910156 193.128906 99.5 190.433594 101.941406 188.15625 C 105.566406 184.953125 113.066406 181.5 117.699219 178.972656 C 121.238281 177.035156 124.105469 175.347656 127.308594 174.085938 C 130.171875 172.988281 133.710938 170.882812 135.902344 171.808594 C 138.261719 172.734375 141.296875 180.066406 140.875 180.402344 C 140.367188 180.742188 133.878906 174.335938 129.582031 169.027344 C 121.746094 159.421875 105.820312 134.140625 100.847656 125.039062 C 98.742188 121.164062 97.898438 120.492188 97.054688 116.445312 C 95.285156 108.101562 95.707031 85.855469 96.71875 76.671875 C 97.222656 71.699219 97.308594 69.425781 99.414062 65.210938 C 102.617188 58.722656 112.898438 47.9375 117.53125 42.878906 C 120.058594 39.929688 121.15625 38.75 123.851562 36.390625 C 128.148438 32.769531 134.890625 27.882812 141.378906 23.921875 C 148.964844 19.371094 160.425781 13.808594 166.828125 11.113281 C 170.367188 9.59375 172.136719 9.175781 175.507812 8.164062 C 179.972656 6.898438 184.691406 5.296875 191.265625 4.539062 C 201.628906 3.359375 223.539062 2.515625 232.050781 4.371094 C 236.09375 5.214844 237.949219 6.5625 240.730469 8.332031 C 243.765625 10.183594 246.542969 13.472656 249.492188 15.492188 C 252.191406 17.347656 255.394531 18.273438 257.582031 20.210938 C 259.691406 22.066406 260.363281 25.101562 262.472656 26.871094 C 264.746094 28.722656 267.78125 28.808594 270.8125 31 C 275.617188 34.621094 282.949219 42.628906 287.160156 48.441406 C 290.617188 53.160156 292.976562 57.039062 295 62.683594 C 297.527344 69.847656 297.777344 80.714844 299.546875 88.300781 C 300.898438 94.535156 303.339844 99.507812 304.183594 105.152344 C 304.941406 110.800781 305.109375 117.121094 304.351562 122.089844 C 303.675781 126.21875 301.570312 129.507812 300.644531 133.046875 C 299.886719 136.332031 300.390625 138.859375 299.042969 142.570312 C 296.683594 148.972656 288.507812 161.527344 284.632812 166.835938 C 282.527344 169.703125 281.515625 170.714844 278.988281 172.90625 C 275.109375 176.359375 264.410156 185.542969 262.554688 184.449219 C 261.460938 183.773438 262.050781 177.453125 263.480469 176.527344 C 265.082031 175.601562 269.972656 178.214844 272.582031 179.984375 C 275.195312 181.753906 277.300781 184.703125 279.238281 187.230469 C 281.09375 189.671875 281.683594 193.210938 283.875 194.898438 C 285.980469 196.5 291.628906 195.910156 291.964844 197.257812 C 292.21875 198.351562 286.65625 201.808594 286.824219 201.976562 C 286.910156 202.144531 290.277344 199.449219 291.710938 198.941406 C 292.722656 198.605469 293.566406 198.605469 294.578125 198.773438 C 296.09375 199.027344 298.621094 200.207031 299.886719 201.132812 C 300.726562 201.808594 301.148438 202.398438 301.65625 203.410156 C 302.246094 204.839844 302.917969 207.285156 302.582031 209.054688 C 302.328125 210.910156 301.316406 212.929688 299.96875 214.195312 C 298.707031 215.460938 296.261719 216.386719 294.828125 216.640625 C 293.734375 216.890625 292.976562 216.808594 291.878906 216.554688 C 290.363281 216.050781 288.089844 214.953125 286.910156 213.605469 C 285.730469 212.257812 284.886719 210.152344 284.800781 208.296875 C 284.632812 206.527344 285.476562 204.082031 286.234375 202.734375 C 286.738281 201.808594 287.328125 201.21875 288.257812 200.628906 C 289.519531 199.785156 291.796875 198.773438 293.648438 198.773438 C 295.417969 198.691406 297.609375 199.449219 299.128906 200.542969 C 300.558594 201.640625 301.824219 203.492188 302.328125 205.261719 C 302.835938 206.949219 302.582031 209.476562 302.078125 210.992188 C 301.824219 212.003906 301.65625 212.847656 300.644531 213.519531 C 298.199219 214.953125 289.097656 215.460938 284.632812 214.195312 C 281.011719 213.101562 278.230469 210.066406 275.617188 207.960938 C 273.339844 206.191406 271.402344 204.503906 269.632812 202.566406 C 267.863281 200.628906 267.273438 198.4375 265.082031 196.332031 C 261.710938 193.128906 252.613281 190.011719 250.082031 186.472656 C 248.398438 184.113281 247.894531 181.582031 248.3125 179.054688 C 248.734375 176.023438 251.261719 172.734375 253.875 169.703125 C 257.246094 165.910156 263.230469 163.636719 267.613281 158.917969 C 273.171875 153.015625 281.179688 141.808594 283.285156 135.742188 C 284.464844 132.457031 283.453125 130.097656 283.960938 127.230469 C 284.464844 124.449219 285.898438 121.671875 286.320312 118.890625 C 286.65625 116.277344 286.65625 114.675781 286.320312 111.050781 C 285.390625 102.625 278.902344 78.273438 277.640625 69.761719 C 277.050781 65.96875 278.058594 64.285156 276.796875 61.589844 C 274.941406 57.710938 269.210938 53.414062 265.082031 49.789062 C 260.871094 46.167969 255.5625 43.386719 251.769531 39.847656 C 248.398438 36.730469 246.125 32.429688 243.257812 30.070312 C 241.152344 28.21875 239.296875 27.292969 236.769531 26.113281 C 233.566406 24.679688 230.367188 23.246094 225.644531 22.402344 C 217.808594 21.054688 202.472656 20.71875 193.457031 21.8125 C 186.714844 22.65625 182.25 24.257812 176.011719 26.53125 C 168.261719 29.398438 157.054688 34.960938 150.480469 38.75 C 146.015625 41.363281 143.484375 43.132812 139.777344 46.25 C 135.058594 50.128906 129.160156 55.773438 124.863281 60.828125 C 120.902344 65.378906 116.773438 68.75 114.75 75.070312 C 111.71875 84.675781 111.632812 104.394531 114.582031 114.675781 C 116.6875 122.175781 122.335938 127.820312 125.707031 132.371094 C 128.148438 135.660156 130.339844 137.089844 132.617188 140.292969 C 135.566406 144.507812 137.925781 150.910156 141.378906 155.796875 C 145.003906 160.9375 152.503906 165.574219 153.933594 170.460938 C 155.03125 174.167969 153.683594 178.632812 152.335938 181.582031 C 151.238281 184.027344 149.804688 185.882812 147.277344 187.484375 C 143.484375 189.925781 134.636719 190.601562 130.171875 192.117188 C 127.136719 193.210938 125.367188 193.972656 122.839844 195.320312 C 119.976562 196.835938 116.4375 199.027344 113.910156 201.132812 C 111.800781 202.820312 110.199219 204.503906 108.515625 206.527344 C 106.832031 208.632812 103.460938 211.667969 103.878906 213.691406 C 104.300781 215.796875 108.515625 217.3125 111.210938 218.828125 C 114.246094 220.597656 117.53125 220.9375 121.070312 223.464844 C 126.71875 227.425781 135.816406 238.378906 140.199219 242.847656 C 142.476562 245.207031 143.738281 246.132812 145.425781 248.324219 C 147.53125 251.019531 149.804688 254.644531 151.660156 257.84375 C 153.34375 260.964844 154.695312 263.914062 156.042969 267.113281 C 157.472656 270.402344 159.328125 273.183594 160.085938 277.394531 C 161.183594 283.800781 161.097656 297.199219 159.496094 302 C 158.738281 304.277344 157.8125 305.539062 156.378906 306.550781 C 154.945312 307.480469 152.671875 308.070312 150.984375 307.898438 C 149.300781 307.648438 147.277344 306.550781 146.097656 305.289062 C 145.003906 304.023438 144.160156 300.148438 144.160156 300.148438"/></clipPath><clipPath id="43a58f0f11"><path clip-rule="nonzero" d="M 0.121094 0 L 218 0 L 218 305 L 0.121094 305 Z M 0.121094 0"/></clipPath><clipPath id="49fb165258"><path clip-rule="nonzero" d="M 57.160156 297.148438 C 55.894531 270.6875 53.621094 268.582031 52.527344 265.632812 C 51.515625 263.019531 51.9375 259.734375 50.335938 257.710938 C 48.734375 255.605469 44.941406 255.351562 42.582031 253.414062 C 40.054688 251.304688 38.453125 247.429688 36.09375 245.15625 C 33.988281 243.214844 31.460938 242.289062 29.4375 240.4375 C 27.246094 238.667969 25.898438 236.476562 23.285156 234.367188 C 19.492188 231.417969 12.078125 228.722656 8.285156 225.097656 C 5.167969 222.234375 2.640625 218.609375 1.375 215.410156 C 0.363281 212.796875 0.28125 210.4375 0.363281 207.742188 C 0.449219 204.789062 0.785156 201 2.386719 198.386719 C 3.988281 195.773438 7.695312 194.511719 9.886719 192.234375 C 11.910156 190.128906 12.5 187.433594 14.941406 185.15625 C 18.566406 181.953125 26.066406 178.5 30.699219 175.972656 C 34.238281 174.035156 37.105469 172.347656 40.308594 171.085938 C 43.171875 169.988281 46.710938 167.882812 48.902344 168.808594 C 51.261719 169.734375 54.296875 177.066406 53.875 177.402344 C 53.367188 177.742188 46.878906 171.335938 42.582031 166.027344 C 34.746094 156.421875 18.820312 131.140625 13.847656 122.039062 C 11.742188 118.164062 10.898438 117.492188 10.054688 113.445312 C 8.285156 105.101562 8.707031 82.855469 9.71875 73.671875 C 10.222656 68.699219 10.308594 66.425781 12.414062 62.210938 C 15.617188 55.722656 25.898438 44.9375 30.53125 39.878906 C 33.058594 36.929688 34.15625 35.75 36.851562 33.390625 C 41.148438 29.769531 47.890625 24.882812 54.378906 20.921875 C 61.964844 16.371094 73.425781 10.808594 79.828125 8.113281 C 83.367188 6.59375 85.136719 6.175781 88.507812 5.164062 C 92.972656 3.898438 97.691406 2.296875 104.265625 1.539062 C 114.628906 0.359375 136.539062 -0.484375 145.050781 1.371094 C 149.09375 2.214844 150.949219 3.5625 153.730469 5.332031 C 156.765625 7.183594 159.542969 10.472656 162.492188 12.492188 C 165.191406 14.347656 168.394531 15.273438 170.582031 17.210938 C 172.691406 19.066406 173.363281 22.101562 175.472656 23.871094 C 177.746094 25.722656 180.78125 25.808594 183.8125 28 C 188.617188 31.621094 195.949219 39.628906 200.160156 45.441406 C 203.617188 50.160156 205.976562 54.039062 208 59.683594 C 210.527344 66.847656 210.777344 77.714844 212.546875 85.300781 C 213.898438 91.535156 216.339844 96.507812 217.183594 102.152344 C 217.941406 107.800781 218.109375 114.121094 217.351562 119.089844 C 216.675781 123.21875 214.570312 126.507812 213.644531 130.046875 C 212.886719 133.332031 213.390625 135.859375 212.042969 139.570312 C 209.683594 145.972656 201.507812 158.527344 197.632812 163.835938 C 195.527344 166.703125 194.515625 167.714844 191.988281 169.90625 C 188.109375 173.359375 177.410156 182.542969 175.554688 181.449219 C 174.460938 180.773438 175.050781 174.453125 176.480469 173.527344 C 178.082031 172.601562 182.972656 175.214844 185.582031 176.984375 C 188.195312 178.753906 190.300781 181.703125 192.238281 184.230469 C 194.09375 186.671875 194.683594 190.210938 196.875 191.898438 C 198.980469 193.5 204.628906 192.910156 204.964844 194.257812 C 205.21875 195.351562 199.65625 198.808594 199.824219 198.976562 C 199.910156 199.144531 203.277344 196.449219 204.710938 195.941406 C 205.722656 195.605469 206.566406 195.605469 207.578125 195.773438 C 209.09375 196.027344 211.621094 197.207031 212.886719 198.132812 C 213.726562 198.808594 214.148438 199.398438 214.65625 200.410156 C 215.246094 201.839844 215.917969 204.285156 215.582031 206.054688 C 215.328125 207.910156 214.316406 209.929688 212.96875 211.195312 C 211.707031 212.460938 209.261719 213.386719 207.828125 213.640625 C 206.734375 213.890625 205.976562 213.808594 204.878906 213.554688 C 203.363281 213.050781 201.089844 211.953125 199.910156 210.605469 C 198.730469 209.257812 197.886719 207.152344 197.800781 205.296875 C 197.632812 203.527344 198.476562 201.082031 199.234375 199.734375 C 199.738281 198.808594 200.328125 198.21875 201.257812 197.628906 C 202.519531 196.785156 204.796875 195.773438 206.648438 195.773438 C 208.417969 195.691406 210.609375 196.449219 212.128906 197.542969 C 213.558594 198.640625 214.824219 200.492188 215.328125 202.261719 C 215.835938 203.949219 215.582031 206.476562 215.078125 207.992188 C 214.824219 209.003906 214.65625 209.847656 213.644531 210.519531 C 211.199219 211.953125 202.097656 212.460938 197.632812 211.195312 C 194.011719 210.101562 191.230469 207.066406 188.617188 204.960938 C 186.339844 203.191406 184.402344 201.503906 182.632812 199.566406 C 180.863281 197.628906 180.273438 195.4375 178.082031 193.332031 C 174.710938 190.128906 165.613281 187.011719 163.082031 183.472656 C 161.398438 181.113281 160.894531 178.582031 161.3125 176.054688 C 161.734375 173.023438 164.261719 169.734375 166.875 166.703125 C 170.246094 162.910156 176.230469 160.636719 180.613281 155.917969 C 186.171875 150.015625 194.179688 138.808594 196.285156 132.742188 C 197.464844 129.457031 196.453125 127.097656 196.960938 124.230469 C 197.464844 121.449219 198.898438 118.671875 199.320312 115.890625 C 199.65625 113.277344 199.65625 111.675781 199.320312 108.050781 C 198.390625 99.625 191.902344 75.273438 190.640625 66.761719 C 190.050781 62.96875 191.058594 61.285156 189.796875 58.589844 C 187.941406 54.710938 182.210938 50.414062 178.082031 46.789062 C 173.871094 43.167969 168.5625 40.386719 164.769531 36.847656 C 161.398438 33.730469 159.125 29.429688 156.257812 27.070312 C 154.152344 25.21875 152.296875 24.292969 149.769531 23.113281 C 146.566406 21.679688 143.367188 20.246094 138.644531 19.402344 C 130.808594 18.054688 115.472656 17.71875 106.457031 18.8125 C 99.714844 19.65625 95.25 21.257812 89.011719 23.53125 C 81.261719 26.398438 70.054688 31.960938 63.480469 35.75 C 59.015625 38.363281 56.484375 40.132812 52.777344 43.25 C 48.058594 47.128906 42.160156 52.773438 37.863281 57.828125 C 33.902344 62.378906 29.773438 65.75 27.75 72.070312 C 24.71875 81.675781 24.632812 101.394531 27.582031 111.675781 C 29.6875 119.175781 35.335938 124.820312 38.707031 129.371094 C 41.148438 132.660156 43.339844 134.089844 45.617188 137.292969 C 48.566406 141.507812 50.925781 147.910156 54.378906 152.796875 C 58.003906 157.9375 65.503906 162.574219 66.933594 167.460938 C 68.03125 171.167969 66.683594 175.632812 65.335938 178.582031 C 64.238281 181.027344 62.804688 182.882812 60.277344 184.484375 C 56.484375 186.925781 47.636719 187.601562 43.171875 189.117188 C 40.136719 190.210938 38.367188 190.972656 35.839844 192.320312 C 32.976562 193.835938 29.4375 196.027344 26.910156 198.132812 C 24.800781 199.820312 23.199219 201.503906 21.515625 203.527344 C 19.832031 205.632812 16.460938 208.667969 16.878906 210.691406 C 17.300781 212.796875 21.515625 214.3125 24.210938 215.828125 C 27.246094 217.597656 30.53125 217.9375 34.070312 220.464844 C 39.71875 224.425781 48.816406 235.378906 53.199219 239.847656 C 55.476562 242.207031 56.738281 243.132812 58.425781 245.324219 C 60.53125 248.019531 62.804688 251.644531 64.660156 254.84375 C 66.34375 257.964844 67.695312 260.914062 69.042969 264.113281 C 70.472656 267.402344 72.328125 270.183594 73.085938 274.394531 C 74.183594 280.800781 74.097656 294.199219 72.496094 299 C 71.738281 301.277344 70.8125 302.539062 69.378906 303.550781 C 67.945312 304.480469 65.671875 305.070312 63.984375 304.898438 C 62.300781 304.648438 60.277344 303.550781 59.097656 302.289062 C 58.003906 301.023438 57.160156 297.148438 57.160156 297.148438"/></clipPath><clipPath id="71b6e418ba"><rect height="305" y="0" width="218" x="0"/></clipPath><clipPath id="94936b2d1a"><path clip-rule="nonzero" d="M 4 184 L 395.699219 184 L 395.699219 627 L 4 627 Z M 4 184"/></clipPath><clipPath id="cdc153eb42"><path clip-rule="nonzero" d="M 273.003906 184.027344 C 281.179688 184.28125 284.378906 184.195312 287.75 186.132812 C 293.988281 189.589844 307.46875 202.0625 309.746094 208.296875 C 310.925781 211.75 309.660156 214.617188 308.816406 217.566406 C 307.890625 220.515625 306.796875 223.464844 304.519531 226.078125 C 301.488281 229.617188 295.417969 232.058594 290.953125 235.597656 C 285.980469 239.558594 280.671875 244.277344 276.121094 248.914062 C 271.65625 253.378906 267.273438 257.171875 263.734375 262.902344 C 259.269531 269.980469 254.382812 282.703125 252.695312 289.191406 C 251.769531 292.730469 251.9375 293.742188 251.683594 297.703125 C 251.09375 307.058594 249.410156 331.917969 251.683594 344.976562 C 253.371094 354.753906 258.425781 362.082031 260.617188 369.75 C 262.472656 376.242188 261.542969 381.71875 264.492188 387.953125 C 268.453125 396.546875 280.335938 409.019531 285.644531 415.003906 C 288.507812 418.207031 290.109375 419.890625 292.636719 421.914062 C 295.25 423.933594 297.863281 424.777344 301.066406 426.96875 C 305.617188 430.171875 313.535156 435.816406 316.992188 439.777344 C 319.265625 442.390625 320.785156 444.582031 321.542969 447.191406 C 322.300781 449.722656 320.53125 453.933594 321.878906 455.03125 C 323.3125 456.210938 327.609375 453.175781 330.472656 453.597656 C 333.675781 454.019531 338.058594 455.871094 340.164062 458.148438 C 342.1875 460.253906 343.453125 463.792969 343.453125 466.320312 C 343.453125 468.511719 342.441406 470.871094 341.09375 472.304688 C 339.828125 473.820312 337.382812 475.085938 335.445312 475.339844 C 333.421875 475.507812 330.8125 474.917969 329.210938 473.738281 C 327.523438 472.640625 325.839844 470.535156 325.585938 468.429688 C 325.25 465.730469 329.292969 461.769531 329.464844 458.652344 C 329.714844 456.125 327.695312 453.429688 327.695312 451.320312 C 327.777344 449.804688 328.113281 448.371094 328.789062 447.191406 C 329.464844 445.929688 330.390625 444.75 331.652344 443.992188 C 333.253906 443.0625 336.035156 442.390625 337.890625 442.472656 C 339.40625 442.558594 340.753906 443.234375 341.933594 444.074219 C 343.03125 444.832031 343.957031 445.507812 344.714844 447.277344 C 346.484375 451.238281 345.050781 464.214844 347.242188 469.523438 C 348.675781 473.148438 351.121094 474.242188 353.226562 477.527344 C 356.261719 482.164062 361.316406 490.167969 363.085938 495.308594 C 364.265625 498.679688 363.761719 501.292969 364.601562 504.410156 C 365.613281 507.78125 368.058594 511.320312 368.816406 514.605469 C 369.574219 517.554688 368.648438 519.578125 369.574219 523.285156 C 371.429688 531.121094 381.035156 549.242188 383.898438 558.089844 C 385.585938 563.3125 387.015625 567.441406 386.847656 570.898438 C 386.765625 573.339844 385.921875 575.449219 384.910156 576.964844 C 384.066406 578.226562 382.804688 579.070312 381.457031 579.578125 C 380.191406 580.167969 378.757812 580.585938 377.242188 580.335938 C 375.472656 580.082031 373.199219 579.15625 371.429688 577.722656 C 369.238281 575.785156 366.710938 571.90625 365.613281 569.296875 C 364.855469 567.273438 364.351562 565.589844 364.519531 563.734375 C 364.769531 561.710938 365.699219 559.269531 367.046875 557.835938 C 368.394531 556.402344 370.839844 555.222656 372.859375 555.054688 C 374.796875 554.886719 377.410156 555.8125 378.929688 556.824219 C 380.191406 557.667969 381.035156 558.761719 381.707031 560.195312 C 382.550781 562.132812 381.960938 565.335938 382.972656 567.777344 C 384.152344 570.308594 386.765625 572.328125 388.449219 574.941406 C 390.21875 577.722656 392.242188 580.925781 393.335938 584.125 C 394.347656 587.246094 395.445312 590.445312 394.855469 593.734375 C 394.179688 597.441406 392.410156 602.328125 388.367188 605.195312 C 381.707031 609.914062 361.148438 609.742188 353.226562 611.597656 C 349.011719 612.609375 347.917969 613.535156 343.789062 614.292969 C 335.953125 615.644531 319.097656 615.390625 309.660156 616.570312 C 302.835938 617.414062 298.03125 619.097656 292.21875 619.601562 C 286.320312 620.191406 281.601562 619.183594 274.519531 619.773438 C 263.398438 620.613281 248.988281 624.660156 232.21875 625.921875 C 207.78125 627.777344 171.800781 626.175781 141.96875 626.175781 C 112.644531 626.261719 70.511719 627.019531 54.753906 626.089844 C 48.855469 625.753906 46.074219 625.5 42.617188 624.660156 C 39.753906 623.984375 37.898438 623.3125 35.035156 621.878906 C 30.738281 619.773438 24.25 615.980469 19.949219 612.273438 C 15.820312 608.734375 12.199219 603.84375 9.5 600.222656 C 7.480469 597.523438 5.542969 595.335938 4.699219 592.722656 C 3.941406 590.195312 4.191406 587.835938 4.363281 584.96875 C 4.613281 581.261719 4.699219 575.617188 6.46875 572.414062 C 7.984375 569.71875 11.441406 568.789062 13.210938 566.515625 C 14.980469 564.324219 16.664062 561.710938 17.085938 559.015625 C 17.507812 556.320312 15.90625 553.960938 15.570312 550.25 C 15.0625 544.183594 14.894531 532.300781 15.484375 525.984375 C 15.820312 521.769531 16.160156 519.410156 17.421875 515.617188 C 19.023438 510.476562 22.058594 502.304688 25.261719 498.257812 C 27.621094 495.308594 30.988281 494.46875 33.179688 492.277344 C 35.035156 490.253906 35.707031 487.808594 37.816406 485.957031 C 40.34375 483.679688 43.207031 482.332031 47.675781 479.972656 C 55.847656 475.589844 77.757812 470.113281 83.65625 462.78125 C 87.53125 458.0625 85.679688 451.40625 87.703125 446.6875 C 89.472656 442.304688 91.578125 438.765625 94.949219 435.144531 C 99.078125 430.675781 107.671875 426.378906 111.96875 422.671875 C 114.917969 420.226562 117.027344 418.625 119.046875 415.929688 C 121.324219 412.980469 122.589844 408.765625 124.695312 405.398438 C 126.71875 402.109375 129.582031 399.667969 131.4375 395.789062 C 133.710938 390.988281 135.734375 383.320312 136.492188 378.429688 C 136.996094 375.0625 135.988281 373.121094 136.746094 369.582031 C 137.839844 364.105469 143.148438 355.257812 145.085938 349.273438 C 146.605469 344.640625 147.617188 342.195312 148.207031 336.804688 C 149.300781 327.28125 149.132812 304.949219 147.699219 296.523438 C 147.027344 292.5625 146.183594 290.710938 144.75 288.011719 C 143.316406 285.148438 139.863281 282.453125 138.9375 279.921875 C 138.175781 277.902344 137.925781 275.878906 138.347656 274.109375 C 138.765625 272.339844 140.03125 270.402344 141.464844 269.222656 C 142.8125 268.125 145.003906 267.285156 146.855469 267.199219 C 148.625 267.113281 150.984375 268.042969 152.335938 268.882812 C 153.261719 269.390625 153.851562 269.980469 154.441406 270.90625 C 155.285156 272.253906 156.210938 274.53125 156.210938 276.382812 C 156.125 278.238281 155.367188 280.34375 154.273438 281.777344 C 153.09375 283.210938 151.15625 284.472656 149.46875 284.980469 C 147.699219 285.402344 145.171875 285.0625 143.65625 284.558594 C 142.644531 284.222656 141.96875 283.800781 141.210938 283.042969 C 140.117188 281.863281 138.683594 279.839844 138.347656 277.984375 C 137.925781 276.214844 138.515625 273.773438 139.019531 272.339844 C 139.441406 271.242188 139.863281 270.652344 140.707031 269.894531 C 141.886719 268.882812 144.074219 267.535156 145.84375 267.285156 C 147.617188 267.03125 150.144531 267.703125 151.492188 268.292969 C 152.503906 268.800781 153.175781 269.472656 153.851562 270.148438 C 154.441406 270.824219 155.535156 272.421875 155.453125 272.59375 C 155.285156 272.675781 154.019531 271.582031 153.851562 271.75 C 153.429688 272.253906 162.363281 281.441406 164.300781 286.074219 C 165.734375 289.699219 165.394531 291.890625 165.734375 296.523438 C 166.40625 305.539062 166.40625 326.269531 165.648438 336.71875 C 165.144531 343.628906 164.554688 348.769531 163.203125 353.65625 C 162.109375 357.449219 160.507812 360.652344 158.90625 363.601562 C 157.472656 366.210938 155.199219 368.066406 154.441406 370.59375 C 153.683594 373.121094 154.609375 376.070312 154.355469 378.769531 C 154.105469 381.550781 153.597656 383.910156 152.671875 387.109375 C 151.15625 392 148.710938 398.65625 145.507812 404.808594 C 141.632812 412.308594 134.300781 422.839844 130.257812 428.570312 C 127.8125 431.941406 126.800781 433.964844 124.105469 436.40625 C 120.820312 439.441406 114.667969 441.464844 111.128906 444.496094 C 107.925781 447.191406 104.640625 450.140625 103.460938 453.261719 C 102.449219 455.957031 103.796875 458.820312 103.375 461.6875 C 102.953125 464.636719 102.109375 467.921875 100.679688 470.535156 C 99.332031 473.0625 97.390625 475.339844 95.117188 477.277344 C 92.757812 479.382812 89.808594 481.238281 86.773438 482.5 C 83.574219 483.847656 80.371094 483.597656 76.410156 485.113281 C 70.257812 487.386719 59.21875 493.203125 53.996094 496.238281 C 51.046875 497.921875 49.359375 498.933594 47.167969 500.703125 C 44.894531 502.554688 42.617188 505 40.765625 507.277344 C 38.910156 509.464844 37.140625 511.574219 35.960938 514.183594 C 34.699219 516.964844 34.023438 519.578125 33.519531 523.453125 C 32.675781 529.605469 32.929688 542.246094 33.519531 548.0625 C 33.769531 551.347656 34.699219 553.03125 34.867188 555.730469 C 35.035156 558.761719 35.035156 562.21875 34.445312 565.335938 C 33.769531 568.285156 32.84375 571.234375 31.160156 574.015625 C 29.050781 577.21875 23.40625 579.914062 22.308594 583.285156 C 21.382812 586.066406 22.140625 589.605469 23.320312 592.214844 C 24.5 594.746094 27.03125 596.851562 29.21875 598.621094 C 31.328125 600.304688 33.6875 601.234375 36.128906 602.582031 C 38.910156 604.097656 42.027344 606.203125 45.148438 607.132812 C 48.265625 608.058594 49.527344 607.972656 54.753906 608.226562 C 77 609.574219 195.648438 611.175781 232.050781 608.058594 C 248.398438 606.625 256.488281 603.003906 267.441406 601.992188 C 276.796875 601.148438 285.980469 602.496094 293.566406 601.738281 C 299.546875 601.148438 303.507812 599.378906 309.492188 598.621094 C 316.90625 597.695312 325.671875 598.199219 334.6875 597.019531 C 345.222656 595.671875 361.570312 590.109375 369.070312 590.53125 C 372.691406 590.785156 376.316406 593.902344 377.074219 593.058594 C 377.832031 592.132812 375.136719 587.917969 373.617188 585.390625 C 372.019531 582.527344 368.984375 580.082031 367.46875 576.964844 C 365.949219 573.675781 364.855469 569.042969 364.769531 565.839844 C 364.601562 563.480469 364.769531 561.289062 365.78125 559.519531 C 366.710938 557.835938 368.816406 556.148438 370.667969 555.476562 C 372.609375 554.886719 375.390625 555.140625 377.074219 555.730469 C 378.507812 556.234375 379.769531 557.5 380.527344 558.339844 C 381.117188 558.929688 381.878906 559.941406 381.707031 560.195312 C 381.539062 560.363281 379.347656 559.183594 379.179688 559.4375 C 378.84375 560.027344 384.40625 564.238281 385.585938 566.769531 C 386.597656 568.789062 386.933594 571.234375 386.679688 573.089844 C 386.511719 574.605469 385.921875 575.867188 384.910156 576.964844 C 383.648438 578.3125 381.203125 579.828125 379.433594 580.25 C 377.917969 580.585938 376.570312 580.503906 375.136719 579.914062 C 373.449219 579.324219 371.429688 578.058594 370.164062 575.953125 C 368.058594 572.582031 368.984375 565.671875 367.046875 559.519531 C 364.265625 550.839844 355.082031 536.347656 353.140625 529.183594 C 352.214844 525.476562 353.226562 523.203125 352.382812 520.503906 C 351.542969 517.808594 349.011719 515.703125 348.339844 512.921875 C 347.582031 509.886719 349.433594 506.265625 348.339844 502.640625 C 346.992188 497.753906 341.511719 490.925781 338.5625 486.882812 C 336.542969 484.101562 334.519531 482.667969 332.917969 480.308594 C 331.402344 477.949219 329.96875 475.675781 329.042969 472.726562 C 327.945312 469.101562 327.945312 463.710938 327.695312 459.832031 C 327.523438 456.714844 327.441406 453.683594 327.695312 451.320312 C 327.945312 449.722656 328.113281 448.371094 328.789062 447.191406 C 329.464844 445.929688 330.472656 444.75 331.652344 443.992188 C 332.832031 443.148438 334.351562 442.644531 335.699219 442.472656 C 337.132812 442.304688 338.648438 442.472656 339.996094 442.980469 C 341.261719 443.484375 342.609375 444.414062 343.535156 445.507812 C 344.460938 446.519531 345.136719 447.78125 345.472656 449.300781 C 345.980469 451.320312 346.0625 454.019531 345.726562 456.460938 C 345.390625 458.992188 343.535156 461.941406 343.199219 464.214844 C 342.863281 465.816406 343.621094 467.082031 343.113281 468.511719 C 342.609375 470.28125 340.921875 472.640625 339.492188 473.820312 C 338.3125 474.75 336.792969 475.167969 335.445312 475.339844 C 334.011719 475.507812 332.414062 475.253906 331.148438 474.75 C 329.800781 474.242188 328.535156 473.316406 327.609375 472.304688 C 326.683594 471.292969 325.25 468.765625 325.585938 468.429688 C 325.925781 468.175781 330.726562 471.039062 330.472656 471.714844 C 330.136719 472.808594 317.582031 472.980469 313.117188 471.292969 C 309.660156 469.945312 306.289062 467.332031 305.277344 464.382812 C 304.265625 461.433594 308.734375 457.558594 307.214844 453.597656 C 304.183594 445.59375 276.628906 432.363281 271.234375 425.367188 C 268.960938 422.335938 269.632812 420.144531 267.949219 417.699219 C 266.011719 414.75 262.554688 412.898438 259.605469 409.355469 C 255.5625 404.46875 248.734375 395.789062 246.628906 390.398438 C 245.363281 387.109375 246.292969 385.339844 245.449219 381.550781 C 243.765625 374.386719 237.023438 358.207031 235.253906 351.382812 C 234.324219 347.925781 234.074219 347.335938 233.734375 343.542969 C 232.894531 334.277344 232.136719 308.40625 234.074219 294.753906 C 235.421875 284.726562 238.707031 275.371094 241.234375 268.882812 C 242.835938 264.753906 244.355469 262.3125 246.207031 259.109375 C 248.144531 255.738281 249.578125 253.125 252.78125 249.25 C 258.59375 242.257812 272.5 228.519531 280.335938 222.117188 C 285.476562 217.988281 293.734375 216.554688 293.988281 213.101562 C 294.238281 209.222656 283.03125 201.386719 278.480469 199.617188 C 275.785156 198.523438 273.257812 200.039062 271.152344 199.363281 C 269.382812 198.773438 267.613281 197.679688 266.601562 196.246094 C 265.589844 194.8125 265.167969 192.453125 265.25 190.851562 C 265.335938 189.589844 265.925781 188.324219 266.601562 187.398438 C 267.273438 186.386719 268.285156 185.460938 269.382812 184.871094 C 270.476562 184.363281 273.003906 184.027344 273.003906 184.027344"/></clipPath><clipPath id="2555c9b662"><path clip-rule="nonzero" d="M 0 0 L 391.519531 0 L 391.519531 443 L 0 443 Z M 0 0"/></clipPath><clipPath id="113fd42a66"><path clip-rule="nonzero" d="M 269.003906 0.0273438 C 277.179688 0.28125 280.378906 0.195312 283.75 2.132812 C 289.988281 5.589844 303.46875 18.0625 305.746094 24.296875 C 306.925781 27.75 305.660156 30.617188 304.816406 33.566406 C 303.890625 36.515625 302.796875 39.464844 300.519531 42.078125 C 297.488281 45.617188 291.417969 48.058594 286.953125 51.597656 C 281.980469 55.558594 276.671875 60.277344 272.121094 64.914062 C 267.65625 69.378906 263.273438 73.171875 259.734375 78.902344 C 255.269531 85.980469 250.382812 98.703125 248.695312 105.191406 C 247.769531 108.730469 247.9375 109.742188 247.683594 113.703125 C 247.09375 123.058594 245.410156 147.917969 247.683594 160.976562 C 249.371094 170.753906 254.425781 178.082031 256.617188 185.75 C 258.472656 192.242188 257.542969 197.71875 260.492188 203.953125 C 264.453125 212.546875 276.335938 225.019531 281.644531 231.003906 C 284.507812 234.207031 286.109375 235.890625 288.636719 237.914062 C 291.25 239.933594 293.863281 240.777344 297.066406 242.96875 C 301.617188 246.171875 309.535156 251.816406 312.992188 255.777344 C 315.265625 258.390625 316.785156 260.582031 317.542969 263.191406 C 318.300781 265.722656 316.53125 269.933594 317.878906 271.03125 C 319.3125 272.210938 323.609375 269.175781 326.472656 269.597656 C 329.675781 270.019531 334.058594 271.871094 336.164062 274.148438 C 338.1875 276.253906 339.453125 279.792969 339.453125 282.320312 C 339.453125 284.511719 338.441406 286.871094 337.09375 288.304688 C 335.828125 289.820312 333.382812 291.085938 331.445312 291.339844 C 329.421875 291.507812 326.8125 290.917969 325.210938 289.738281 C 323.523438 288.640625 321.839844 286.535156 321.585938 284.429688 C 321.25 281.730469 325.292969 277.769531 325.464844 274.652344 C 325.714844 272.125 323.695312 269.429688 323.695312 267.320312 C 323.777344 265.804688 324.113281 264.371094 324.789062 263.191406 C 325.464844 261.929688 326.390625 260.75 327.652344 259.992188 C 329.253906 259.0625 332.035156 258.390625 333.890625 258.472656 C 335.40625 258.558594 336.753906 259.234375 337.933594 260.074219 C 339.03125 260.832031 339.957031 261.507812 340.714844 263.277344 C 342.484375 267.238281 341.050781 280.214844 343.242188 285.523438 C 344.675781 289.148438 347.121094 290.242188 349.226562 293.527344 C 352.261719 298.164062 357.316406 306.167969 359.085938 311.308594 C 360.265625 314.679688 359.761719 317.292969 360.601562 320.410156 C 361.613281 323.78125 364.058594 327.320312 364.816406 330.605469 C 365.574219 333.554688 364.648438 335.578125 365.574219 339.285156 C 367.429688 347.121094 377.035156 365.242188 379.898438 374.089844 C 381.585938 379.3125 383.015625 383.441406 382.847656 386.898438 C 382.765625 389.339844 381.921875 391.449219 380.910156 392.964844 C 380.066406 394.226562 378.804688 395.070312 377.457031 395.578125 C 376.191406 396.167969 374.757812 396.585938 373.242188 396.335938 C 371.472656 396.082031 369.199219 395.15625 367.429688 393.722656 C 365.238281 391.785156 362.710938 387.90625 361.613281 385.296875 C 360.855469 383.273438 360.351562 381.589844 360.519531 379.734375 C 360.769531 377.710938 361.699219 375.269531 363.046875 373.835938 C 364.394531 372.402344 366.839844 371.222656 368.859375 371.054688 C 370.796875 370.886719 373.410156 371.8125 374.929688 372.824219 C 376.191406 373.667969 377.035156 374.761719 377.707031 376.195312 C 378.550781 378.132812 377.960938 381.335938 378.972656 383.777344 C 380.152344 386.308594 382.765625 388.328125 384.449219 390.941406 C 386.21875 393.722656 388.242188 396.925781 389.335938 400.125 C 390.347656 403.246094 391.445312 406.445312 390.855469 409.734375 C 390.179688 413.441406 388.410156 418.328125 384.367188 421.195312 C 377.707031 425.914062 357.148438 425.742188 349.226562 427.597656 C 345.011719 428.609375 343.917969 429.535156 339.789062 430.292969 C 331.953125 431.644531 315.097656 431.390625 305.660156 432.570312 C 298.835938 433.414062 294.03125 435.097656 288.21875 435.601562 C 282.320312 436.191406 277.601562 435.183594 270.519531 435.773438 C 259.398438 436.613281 244.988281 440.660156 228.21875 441.921875 C 203.78125 443.777344 167.800781 442.175781 137.96875 442.175781 C 108.644531 442.261719 66.511719 443.019531 50.753906 442.089844 C 44.855469 441.753906 42.074219 441.5 38.617188 440.660156 C 35.753906 439.984375 33.898438 439.3125 31.035156 437.878906 C 26.738281 435.773438 20.25 431.980469 15.949219 428.273438 C 11.820312 424.734375 8.199219 419.84375 5.5 416.222656 C 3.480469 413.523438 1.542969 411.335938 0.699219 408.722656 C -0.0585938 406.195312 0.191406 403.835938 0.363281 400.96875 C 0.613281 397.261719 0.699219 391.617188 2.46875 388.414062 C 3.984375 385.71875 7.441406 384.789062 9.210938 382.515625 C 10.980469 380.324219 12.664062 377.710938 13.085938 375.015625 C 13.507812 372.320312 11.90625 369.960938 11.570312 366.25 C 11.0625 360.183594 10.894531 348.300781 11.484375 341.984375 C 11.820312 337.769531 12.160156 335.410156 13.421875 331.617188 C 15.023438 326.476562 18.058594 318.304688 21.261719 314.257812 C 23.621094 311.308594 26.988281 310.46875 29.179688 308.277344 C 31.035156 306.253906 31.707031 303.808594 33.816406 301.957031 C 36.34375 299.679688 39.207031 298.332031 43.675781 295.972656 C 51.847656 291.589844 73.757812 286.113281 79.65625 278.78125 C 83.53125 274.0625 81.679688 267.40625 83.703125 262.6875 C 85.472656 258.304688 87.578125 254.765625 90.949219 251.144531 C 95.078125 246.675781 103.671875 242.378906 107.96875 238.671875 C 110.917969 236.226562 113.027344 234.625 115.046875 231.929688 C 117.324219 228.980469 118.589844 224.765625 120.695312 221.398438 C 122.71875 218.109375 125.582031 215.667969 127.4375 211.789062 C 129.710938 206.988281 131.734375 199.320312 132.492188 194.429688 C 132.996094 191.0625 131.988281 189.121094 132.746094 185.582031 C 133.839844 180.105469 139.148438 171.257812 141.085938 165.273438 C 142.605469 160.640625 143.617188 158.195312 144.207031 152.804688 C 145.300781 143.28125 145.132812 120.949219 143.699219 112.523438 C 143.027344 108.5625 142.183594 106.710938 140.75 104.011719 C 139.316406 101.148438 135.863281 98.453125 134.9375 95.921875 C 134.175781 93.902344 133.925781 91.878906 134.347656 90.109375 C 134.765625 88.339844 136.03125 86.402344 137.464844 85.222656 C 138.8125 84.125 141.003906 83.285156 142.855469 83.199219 C 144.625 83.113281 146.984375 84.042969 148.335938 84.882812 C 149.261719 85.390625 149.851562 85.980469 150.441406 86.90625 C 151.285156 88.253906 152.210938 90.53125 152.210938 92.382812 C 152.125 94.238281 151.367188 96.34375 150.273438 97.777344 C 149.09375 99.210938 147.15625 100.472656 145.46875 100.980469 C 143.699219 101.402344 141.171875 101.0625 139.65625 100.558594 C 138.644531 100.222656 137.96875 99.800781 137.210938 99.042969 C 136.117188 97.863281 134.683594 95.839844 134.347656 93.984375 C 133.925781 92.214844 134.515625 89.773438 135.019531 88.339844 C 135.441406 87.242188 135.863281 86.652344 136.707031 85.894531 C 137.886719 84.882812 140.074219 83.535156 141.84375 83.285156 C 143.617188 83.03125 146.144531 83.703125 147.492188 84.292969 C 148.503906 84.800781 149.175781 85.472656 149.851562 86.148438 C 150.441406 86.824219 151.535156 88.421875 151.453125 88.59375 C 151.285156 88.675781 150.019531 87.582031 149.851562 87.75 C 149.429688 88.253906 158.363281 97.441406 160.300781 102.074219 C 161.734375 105.699219 161.394531 107.890625 161.734375 112.523438 C 162.40625 121.539062 162.40625 142.269531 161.648438 152.71875 C 161.144531 159.628906 160.554688 164.769531 159.203125 169.65625 C 158.109375 173.449219 156.507812 176.652344 154.90625 179.601562 C 153.472656 182.210938 151.199219 184.066406 150.441406 186.59375 C 149.683594 189.121094 150.609375 192.070312 150.355469 194.769531 C 150.105469 197.550781 149.597656 199.910156 148.671875 203.109375 C 147.15625 208 144.710938 214.65625 141.507812 220.808594 C 137.632812 228.308594 130.300781 238.839844 126.257812 244.570312 C 123.8125 247.941406 122.800781 249.964844 120.105469 252.40625 C 116.820312 255.441406 110.667969 257.464844 107.128906 260.496094 C 103.925781 263.191406 100.640625 266.140625 99.460938 269.261719 C 98.449219 271.957031 99.796875 274.820312 99.375 277.6875 C 98.953125 280.636719 98.109375 283.921875 96.679688 286.535156 C 95.332031 289.0625 93.390625 291.339844 91.117188 293.277344 C 88.757812 295.382812 85.808594 297.238281 82.773438 298.5 C 79.574219 299.847656 76.371094 299.597656 72.410156 301.113281 C 66.257812 303.386719 55.21875 309.203125 49.996094 312.238281 C 47.046875 313.921875 45.359375 314.933594 43.167969 316.703125 C 40.894531 318.554688 38.617188 321 36.765625 323.277344 C 34.910156 325.464844 33.140625 327.574219 31.960938 330.183594 C 30.699219 332.964844 30.023438 335.578125 29.519531 339.453125 C 28.675781 345.605469 28.929688 358.246094 29.519531 364.0625 C 29.769531 367.347656 30.699219 369.03125 30.867188 371.730469 C 31.035156 374.761719 31.035156 378.21875 30.445312 381.335938 C 29.769531 384.285156 28.84375 387.234375 27.160156 390.015625 C 25.050781 393.21875 19.40625 395.914062 18.308594 399.285156 C 17.382812 402.066406 18.140625 405.605469 19.320312 408.214844 C 20.5 410.746094 23.03125 412.851562 25.21875 414.621094 C 27.328125 416.304688 29.6875 417.234375 32.128906 418.582031 C 34.910156 420.097656 38.027344 422.203125 41.148438 423.132812 C 44.265625 424.058594 45.527344 423.972656 50.753906 424.226562 C 73 425.574219 191.648438 427.175781 228.050781 424.058594 C 244.398438 422.625 252.488281 419.003906 263.441406 417.992188 C 272.796875 417.148438 281.980469 418.496094 289.566406 417.738281 C 295.546875 417.148438 299.507812 415.378906 305.492188 414.621094 C 312.90625 413.695312 321.671875 414.199219 330.6875 413.019531 C 341.222656 411.671875 357.570312 406.109375 365.070312 406.53125 C 368.691406 406.785156 372.316406 409.902344 373.074219 409.058594 C 373.832031 408.132812 371.136719 403.917969 369.617188 401.390625 C 368.019531 398.527344 364.984375 396.082031 363.46875 392.964844 C 361.949219 389.675781 360.855469 385.042969 360.769531 381.839844 C 360.601562 379.480469 360.769531 377.289062 361.78125 375.519531 C 362.710938 373.835938 364.816406 372.148438 366.667969 371.476562 C 368.609375 370.886719 371.390625 371.140625 373.074219 371.730469 C 374.507812 372.234375 375.769531 373.5 376.527344 374.339844 C 377.117188 374.929688 377.878906 375.941406 377.707031 376.195312 C 377.539062 376.363281 375.347656 375.183594 375.179688 375.4375 C 374.84375 376.027344 380.40625 380.238281 381.585938 382.769531 C 382.597656 384.789062 382.933594 387.234375 382.679688 389.089844 C 382.511719 390.605469 381.921875 391.867188 380.910156 392.964844 C 379.648438 394.3125 377.203125 395.828125 375.433594 396.25 C 373.917969 396.585938 372.570312 396.503906 371.136719 395.914062 C 369.449219 395.324219 367.429688 394.058594 366.164062 391.953125 C 364.058594 388.582031 364.984375 381.671875 363.046875 375.519531 C 360.265625 366.839844 351.082031 352.347656 349.140625 345.183594 C 348.214844 341.476562 349.226562 339.203125 348.382812 336.503906 C 347.542969 333.808594 345.011719 331.703125 344.339844 328.921875 C 343.582031 325.886719 345.433594 322.265625 344.339844 318.640625 C 342.992188 313.753906 337.511719 306.925781 334.5625 302.882812 C 332.542969 300.101562 330.519531 298.667969 328.917969 296.308594 C 327.402344 293.949219 325.96875 291.675781 325.042969 288.726562 C 323.945312 285.101562 323.945312 279.710938 323.695312 275.832031 C 323.523438 272.714844 323.441406 269.683594 323.695312 267.320312 C 323.945312 265.722656 324.113281 264.371094 324.789062 263.191406 C 325.464844 261.929688 326.472656 260.75 327.652344 259.992188 C 328.832031 259.148438 330.351562 258.644531 331.699219 258.472656 C 333.132812 258.304688 334.648438 258.472656 335.996094 258.980469 C 337.261719 259.484375 338.609375 260.414062 339.535156 261.507812 C 340.460938 262.519531 341.136719 263.78125 341.472656 265.300781 C 341.980469 267.320312 342.0625 270.019531 341.726562 272.460938 C 341.390625 274.992188 339.535156 277.941406 339.199219 280.214844 C 338.863281 281.816406 339.621094 283.082031 339.113281 284.511719 C 338.609375 286.28125 336.921875 288.640625 335.492188 289.820312 C 334.3125 290.75 332.792969 291.167969 331.445312 291.339844 C 330.011719 291.507812 328.414062 291.253906 327.148438 290.75 C 325.800781 290.242188 324.535156 289.316406 323.609375 288.304688 C 322.683594 287.292969 321.25 284.765625 321.585938 284.429688 C 321.925781 284.175781 326.726562 287.039062 326.472656 287.714844 C 326.136719 288.808594 313.582031 288.980469 309.117188 287.292969 C 305.660156 285.945312 302.289062 283.332031 301.277344 280.382812 C 300.265625 277.433594 304.734375 273.558594 303.214844 269.597656 C 300.183594 261.59375 272.628906 248.363281 267.234375 241.367188 C 264.960938 238.335938 265.632812 236.144531 263.949219 233.699219 C 262.011719 230.75 258.554688 228.898438 255.605469 225.355469 C 251.5625 220.46875 244.734375 211.789062 242.628906 206.398438 C 241.363281 203.109375 242.292969 201.339844 241.449219 197.550781 C 239.765625 190.386719 233.023438 174.207031 231.253906 167.382812 C 230.324219 163.925781 230.074219 163.335938 229.734375 159.542969 C 228.894531 150.277344 228.136719 124.40625 230.074219 110.753906 C 231.421875 100.726562 234.707031 91.371094 237.234375 84.882812 C 238.835938 80.753906 240.355469 78.3125 242.207031 75.109375 C 244.144531 71.738281 245.578125 69.125 248.78125 65.25 C 254.59375 58.257812 268.5 44.519531 276.335938 38.117188 C 281.476562 33.988281 289.734375 32.554688 289.988281 29.101562 C 290.238281 25.222656 279.03125 17.386719 274.480469 15.617188 C 271.785156 14.523438 269.257812 16.039062 267.152344 15.363281 C 265.382812 14.773438 263.613281 13.679688 262.601562 12.246094 C 261.589844 10.8125 261.167969 8.453125 261.25 6.851562 C 261.335938 5.589844 261.925781 4.324219 262.601562 3.398438 C 263.273438 2.386719 264.285156 1.460938 265.382812 0.871094 C 266.476562 0.363281 269.003906 0.0273438 269.003906 0.0273438"/></clipPath><clipPath id="671bedcc33"><rect height="443" y="0" width="392" x="0"/></clipPath><clipPath id="01df616c62"><path clip-rule="nonzero" d="M 341.757812 440.605469 L 357.367188 440.605469 L 357.367188 460.703125 L 341.757812 460.703125 Z M 341.757812 440.605469"/></clipPath><clipPath id="c7379e8c39"><path clip-rule="nonzero" d="M 341.851562 453.09375 C 342.523438 444.832031 342.777344 444.328125 343.367188 443.652344 C 344.292969 442.644531 345.980469 441.292969 347.410156 440.875 C 348.929688 440.453125 351.035156 440.789062 352.300781 441.125 C 353.226562 441.464844 353.816406 441.882812 354.492188 442.472656 C 355.082031 442.980469 355.671875 443.484375 356.089844 444.328125 C 356.679688 445.507812 357.269531 447.613281 357.101562 449.132812 C 356.933594 450.648438 355.921875 452.503906 355.082031 453.597656 C 354.492188 454.273438 353.816406 454.691406 353.058594 455.03125 C 352.382812 455.453125 351.625 455.789062 350.699219 455.871094 C 349.433594 455.957031 347.242188 455.789062 345.894531 455.03125 C 344.546875 454.355469 343.199219 452.671875 342.523438 451.492188 C 342.101562 450.730469 341.933594 449.972656 341.851562 449.132812 C 341.765625 448.289062 341.683594 447.53125 342.019531 446.601562 C 342.355469 445.421875 343.621094 443.402344 344.546875 442.472656 C 345.222656 441.800781 345.726562 441.464844 346.652344 441.125 C 347.917969 440.789062 350.023438 440.453125 351.542969 440.875 C 353.058594 441.292969 354.660156 442.390625 355.585938 443.652344 C 356.511719 444.917969 356.933594 446.519531 357.1875 448.289062 C 357.441406 450.648438 357.269531 454.523438 356.261719 456.632812 C 355.332031 458.230469 353.5625 459.582031 352.214844 460.171875 C 351.035156 460.675781 349.773438 460.761719 348.59375 460.589844 C 347.410156 460.507812 346.148438 460 345.136719 459.328125 C 344.210938 458.652344 343.28125 457.640625 342.777344 456.632812 C 342.1875 455.535156 341.851562 453.09375 341.851562 453.09375"/></clipPath><clipPath id="46a6a6cfcc"><path clip-rule="nonzero" d="M 0.757812 0.605469 L 16.367188 0.605469 L 16.367188 20.703125 L 0.757812 20.703125 Z M 0.757812 0.605469"/></clipPath><clipPath id="c4817d77aa"><path clip-rule="nonzero" d="M 0.851562 13.09375 C 1.523438 4.832031 1.777344 4.328125 2.367188 3.652344 C 3.292969 2.644531 4.980469 1.292969 6.410156 0.875 C 7.929688 0.453125 10.035156 0.789062 11.300781 1.125 C 12.226562 1.464844 12.816406 1.882812 13.492188 2.472656 C 14.082031 2.980469 14.671875 3.484375 15.089844 4.328125 C 15.679688 5.507812 16.269531 7.613281 16.101562 9.132812 C 15.933594 10.648438 14.921875 12.503906 14.082031 13.597656 C 13.492188 14.273438 12.816406 14.691406 12.058594 15.03125 C 11.382812 15.453125 10.625 15.789062 9.699219 15.871094 C 8.433594 15.957031 6.242188 15.789062 4.894531 15.03125 C 3.546875 14.355469 2.199219 12.671875 1.523438 11.492188 C 1.101562 10.730469 0.933594 9.972656 0.851562 9.132812 C 0.765625 8.289062 0.683594 7.53125 1.019531 6.601562 C 1.355469 5.421875 2.621094 3.402344 3.546875 2.472656 C 4.222656 1.800781 4.726562 1.464844 5.652344 1.125 C 6.917969 0.789062 9.023438 0.453125 10.542969 0.875 C 12.058594 1.292969 13.660156 2.390625 14.585938 3.652344 C 15.511719 4.917969 15.933594 6.519531 16.1875 8.289062 C 16.441406 10.648438 16.269531 14.523438 15.261719 16.632812 C 14.332031 18.230469 12.5625 19.582031 11.214844 20.171875 C 10.035156 20.675781 8.773438 20.761719 7.59375 20.589844 C 6.410156 20.507812 5.148438 20 4.136719 19.328125 C 3.210938 18.652344 2.28125 17.640625 1.777344 16.632812 C 1.1875 15.535156 0.851562 13.09375 0.851562 13.09375"/></clipPath><clipPath id="3a4e17cd34"><rect height="21" y="0" width="17" x="0"/></clipPath><clipPath id="a41bac67f4"><path clip-rule="nonzero" d="M 330.679688 434.253906 L 345.601562 434.253906 L 345.601562 449.511719 L 330.679688 449.511719 Z M 330.679688 434.253906"/></clipPath><clipPath id="2d4f00a188"><path clip-rule="nonzero" d="M 345.558594 439.695312 C 345.558594 444.414062 345.050781 445.675781 344.292969 446.601562 C 343.621094 447.53125 342.523438 448.371094 341.429688 448.792969 C 340.417969 449.300781 339.070312 449.550781 337.890625 449.46875 C 336.710938 449.382812 335.445312 449.046875 334.433594 448.371094 C 333.421875 447.78125 332.414062 446.855469 331.824219 445.84375 C 331.234375 444.832031 330.8125 443.570312 330.726562 442.390625 C 330.726562 441.210938 330.980469 439.863281 331.402344 438.765625 C 331.90625 437.753906 332.75 436.660156 333.675781 435.984375 C 334.605469 435.226562 335.785156 434.636719 336.964844 434.46875 C 338.144531 434.214844 339.492188 434.300781 340.585938 434.722656 C 341.683594 435.058594 343.703125 436.574219 343.703125 436.574219"/></clipPath><clipPath id="5fcbea5e39"><path clip-rule="nonzero" d="M 0.71875 0.253906 L 15.601562 0.253906 L 15.601562 15.511719 L 0.71875 15.511719 Z M 0.71875 0.253906"/></clipPath><clipPath id="f7fdd0dab3"><path clip-rule="nonzero" d="M 15.558594 5.695312 C 15.558594 10.414062 15.050781 11.675781 14.292969 12.601562 C 13.621094 13.53125 12.523438 14.371094 11.429688 14.792969 C 10.417969 15.300781 9.070312 15.550781 7.890625 15.46875 C 6.710938 15.382812 5.445312 15.046875 4.433594 14.371094 C 3.421875 13.78125 2.414062 12.855469 1.824219 11.84375 C 1.234375 10.832031 0.8125 9.570312 0.726562 8.390625 C 0.726562 7.210938 0.980469 5.863281 1.402344 4.765625 C 1.90625 3.753906 2.75 2.660156 3.675781 1.984375 C 4.605469 1.226562 5.785156 0.636719 6.964844 0.46875 C 8.144531 0.214844 9.492188 0.300781 10.585938 0.722656 C 11.683594 1.058594 13.703125 2.574219 13.703125 2.574219"/></clipPath><clipPath id="e77aec6204"><rect height="16" y="0" width="16" x="0"/></clipPath><clipPath id="e1e8b03817"><path clip-rule="nonzero" d="M 327.5625 437.453125 L 342.398438 437.453125 L 342.398438 452.714844 L 327.5625 452.714844 Z M 327.5625 437.453125"/></clipPath><clipPath id="371fb1bb6c"><path clip-rule="nonzero" d="M 342.355469 442.8125 C 342.441406 447.613281 341.851562 448.878906 341.09375 449.804688 C 340.417969 450.730469 339.324219 451.574219 338.226562 451.996094 C 337.214844 452.503906 335.867188 452.753906 334.6875 452.671875 C 333.507812 452.585938 332.242188 452.164062 331.234375 451.574219 C 330.222656 450.984375 329.292969 450.058594 328.621094 449.046875 C 328.03125 448.035156 327.695312 446.773438 327.609375 445.59375 C 327.523438 444.414062 327.777344 443.0625 328.199219 441.96875 C 328.703125 440.957031 329.546875 439.863281 330.472656 439.105469 C 331.402344 438.429688 332.664062 437.839844 333.761719 437.671875 C 334.941406 437.417969 336.289062 437.503906 337.382812 437.839844 C 338.5625 438.175781 340.503906 439.777344 340.503906 439.777344"/></clipPath><clipPath id="e4dceaace7"><path clip-rule="nonzero" d="M 0.5625 0.453125 L 15.398438 0.453125 L 15.398438 15.714844 L 0.5625 15.714844 Z M 0.5625 0.453125"/></clipPath><clipPath id="10c0422472"><path clip-rule="nonzero" d="M 15.355469 5.8125 C 15.441406 10.613281 14.851562 11.878906 14.09375 12.804688 C 13.417969 13.730469 12.324219 14.574219 11.226562 14.996094 C 10.214844 15.503906 8.867188 15.753906 7.6875 15.671875 C 6.507812 15.585938 5.242188 15.164062 4.234375 14.574219 C 3.222656 13.984375 2.292969 13.058594 1.621094 12.046875 C 1.03125 11.035156 0.695312 9.773438 0.609375 8.59375 C 0.523438 7.414062 0.777344 6.0625 1.199219 4.96875 C 1.703125 3.957031 2.546875 2.863281 3.472656 2.105469 C 4.402344 1.429688 5.664062 0.839844 6.761719 0.671875 C 7.941406 0.417969 9.289062 0.503906 10.382812 0.839844 C 11.5625 1.175781 13.503906 2.777344 13.503906 2.777344"/></clipPath><clipPath id="634f78cf29"><rect height="16" y="0" width="16" x="0"/></clipPath><clipPath id="e3f5f30708"><path clip-rule="nonzero" d="M 327.5625 440.65625 L 342.398438 440.65625 L 342.398438 455.917969 L 327.5625 455.917969 Z M 327.5625 440.65625"/></clipPath><clipPath id="bf9740a37b"><path clip-rule="nonzero" d="M 342.355469 446.011719 C 342.441406 450.816406 341.851562 452.082031 341.09375 453.007812 C 340.417969 453.933594 339.324219 454.691406 338.226562 455.199219 C 337.214844 455.703125 335.867188 455.957031 334.6875 455.871094 C 333.507812 455.789062 332.242188 455.367188 331.234375 454.777344 C 330.222656 454.1875 329.292969 453.261719 328.621094 452.25 C 328.03125 451.238281 327.695312 449.890625 327.609375 448.710938 C 327.523438 447.613281 327.777344 446.265625 328.199219 445.171875 C 328.703125 444.074219 329.546875 443.0625 330.472656 442.304688 C 331.402344 441.632812 332.664062 441.042969 333.761719 440.875 C 334.941406 440.621094 336.289062 440.703125 337.382812 441.042969 C 338.5625 441.378906 340.503906 442.894531 340.503906 442.894531"/></clipPath><clipPath id="499880206a"><path clip-rule="nonzero" d="M 0.5625 0.65625 L 15.398438 0.65625 L 15.398438 15.917969 L 0.5625 15.917969 Z M 0.5625 0.65625"/></clipPath><clipPath id="ef562ee38c"><path clip-rule="nonzero" d="M 15.355469 6.011719 C 15.441406 10.816406 14.851562 12.082031 14.09375 13.007812 C 13.417969 13.933594 12.324219 14.691406 11.226562 15.199219 C 10.214844 15.703125 8.867188 15.957031 7.6875 15.871094 C 6.507812 15.789062 5.242188 15.367188 4.234375 14.777344 C 3.222656 14.1875 2.292969 13.261719 1.621094 12.25 C 1.03125 11.238281 0.695312 9.890625 0.609375 8.710938 C 0.523438 7.613281 0.777344 6.265625 1.199219 5.171875 C 1.703125 4.074219 2.546875 3.0625 3.472656 2.304688 C 4.402344 1.632812 5.664062 1.042969 6.761719 0.875 C 7.941406 0.621094 9.289062 0.703125 10.382812 1.042969 C 11.5625 1.378906 13.503906 2.894531 13.503906 2.894531"/></clipPath><clipPath id="662fc9e321"><rect height="16" y="0" width="16" x="0"/></clipPath><clipPath id="f08eeb1f39"><path clip-rule="nonzero" d="M 338.570312 448.5625 L 355.652344 448.5625 L 355.652344 465.644531 L 338.570312 465.644531 Z M 338.570312 448.5625"/></clipPath><clipPath id="00fd11e0e9"><path clip-rule="nonzero" d="M 351.710938 450.902344 C 355.417969 455.871094 355.585938 457.980469 355.417969 459.328125 C 355.332031 460.253906 355.082031 460.84375 354.574219 461.601562 C 353.816406 462.699219 352.046875 464.300781 350.953125 464.890625 C 350.109375 465.308594 349.433594 465.480469 348.507812 465.480469 C 347.160156 465.480469 345.050781 465.140625 343.789062 464.300781 C 342.441406 463.457031 341.261719 461.6875 340.671875 460.507812 C 340.332031 459.664062 340.164062 458.992188 340.25 458.0625 C 340.332031 456.714844 341.007812 454.523438 341.683594 453.34375 C 342.1875 452.585938 342.777344 452.082031 343.453125 451.660156 C 344.125 451.152344 344.714844 450.730469 345.640625 450.5625 C 346.90625 450.226562 349.097656 450.140625 350.53125 450.648438 C 351.960938 451.152344 353.5625 452.671875 354.320312 453.765625 C 354.910156 454.441406 355.164062 455.199219 355.332031 456.042969 C 355.5 456.800781 355.671875 457.558594 355.5 458.484375 C 355.332031 459.75 354.660156 461.855469 353.5625 462.949219 C 352.550781 464.128906 350.613281 465.058594 349.351562 465.394531 C 348.421875 465.648438 347.75 465.648438 346.820312 465.480469 C 345.558594 465.140625 343.703125 464.300781 342.441406 463.289062 C 341.09375 462.109375 339.574219 460.085938 339.070312 458.484375 C 338.5625 457.304688 338.5625 456.042969 338.816406 454.863281 C 339.070312 453.765625 339.574219 452.503906 340.332031 451.574219 C 341.007812 450.648438 342.101562 449.804688 343.199219 449.300781 C 344.292969 448.792969 345.472656 448.542969 346.738281 448.625 C 348.339844 448.878906 351.710938 450.902344 351.710938 450.902344"/></clipPath><clipPath id="3fadd9a550"><path clip-rule="nonzero" d="M 0.570312 0.5625 L 17.652344 0.5625 L 17.652344 17.644531 L 0.570312 17.644531 Z M 0.570312 0.5625"/></clipPath><clipPath id="753b6dc0ca"><path clip-rule="nonzero" d="M 13.710938 2.902344 C 17.417969 7.871094 17.585938 9.980469 17.417969 11.328125 C 17.332031 12.253906 17.082031 12.84375 16.574219 13.601562 C 15.816406 14.699219 14.046875 16.300781 12.953125 16.890625 C 12.109375 17.308594 11.433594 17.480469 10.507812 17.480469 C 9.160156 17.480469 7.050781 17.140625 5.789062 16.300781 C 4.441406 15.457031 3.261719 13.6875 2.671875 12.507812 C 2.332031 11.664062 2.164062 10.992188 2.25 10.0625 C 2.332031 8.714844 3.007812 6.523438 3.683594 5.34375 C 4.1875 4.585938 4.777344 4.082031 5.453125 3.660156 C 6.125 3.152344 6.714844 2.730469 7.640625 2.5625 C 8.90625 2.226562 11.097656 2.140625 12.53125 2.648438 C 13.960938 3.152344 15.5625 4.671875 16.320312 5.765625 C 16.910156 6.441406 17.164062 7.199219 17.332031 8.042969 C 17.5 8.800781 17.671875 9.558594 17.5 10.484375 C 17.332031 11.75 16.660156 13.855469 15.5625 14.949219 C 14.550781 16.128906 12.613281 17.058594 11.351562 17.394531 C 10.421875 17.648438 9.75 17.648438 8.820312 17.480469 C 7.558594 17.140625 5.703125 16.300781 4.441406 15.289062 C 3.09375 14.109375 1.574219 12.085938 1.070312 10.484375 C 0.5625 9.304688 0.5625 8.042969 0.816406 6.863281 C 1.070312 5.765625 1.574219 4.503906 2.332031 3.574219 C 3.007812 2.648438 4.101562 1.804688 5.199219 1.300781 C 6.292969 0.792969 7.472656 0.542969 8.738281 0.625 C 10.339844 0.878906 13.710938 2.902344 13.710938 2.902344"/></clipPath><clipPath id="e8bf2655b5"><rect height="18" y="0" width="18" x="0"/></clipPath><clipPath id="6dceda02ee"><path clip-rule="nonzero" d="M 343.488281 451.78125 L 358.324219 451.78125 L 358.324219 467.039062 L 343.488281 467.039062 Z M 343.488281 451.78125"/></clipPath><clipPath id="d73715f4c2"><path clip-rule="nonzero" d="M 358.28125 457.222656 C 358.367188 461.941406 357.777344 463.203125 357.019531 464.128906 C 356.34375 465.058594 355.25 465.902344 354.152344 466.320312 C 353.140625 466.828125 351.792969 467.082031 350.613281 466.996094 C 349.433594 466.910156 348.171875 466.574219 347.160156 465.902344 C 346.148438 465.308594 345.222656 464.382812 344.632812 463.371094 C 343.957031 462.359375 343.621094 461.097656 343.535156 459.917969 C 343.453125 458.738281 343.703125 457.390625 344.125 456.292969 C 344.632812 455.28125 345.472656 454.1875 346.402344 453.511719 C 347.328125 452.753906 348.59375 452.164062 349.6875 451.996094 C 350.867188 451.742188 352.214844 451.828125 353.3125 452.164062 C 354.492188 452.585938 356.429688 454.101562 356.429688 454.101562"/></clipPath><clipPath id="02491de2ee"><path clip-rule="nonzero" d="M 0.488281 0.78125 L 15.324219 0.78125 L 15.324219 16.039062 L 0.488281 16.039062 Z M 0.488281 0.78125"/></clipPath><clipPath id="ee14c78bde"><path clip-rule="nonzero" d="M 15.28125 6.222656 C 15.367188 10.941406 14.777344 12.203125 14.019531 13.128906 C 13.34375 14.058594 12.25 14.902344 11.152344 15.320312 C 10.140625 15.828125 8.792969 16.082031 7.613281 15.996094 C 6.433594 15.910156 5.171875 15.574219 4.160156 14.902344 C 3.148438 14.308594 2.222656 13.382812 1.632812 12.371094 C 0.957031 11.359375 0.621094 10.097656 0.535156 8.917969 C 0.453125 7.738281 0.703125 6.390625 1.125 5.292969 C 1.632812 4.28125 2.472656 3.1875 3.402344 2.511719 C 4.328125 1.753906 5.59375 1.164062 6.6875 0.996094 C 7.867188 0.742188 9.214844 0.828125 10.3125 1.164062 C 11.492188 1.585938 13.429688 3.101562 13.429688 3.101562"/></clipPath><clipPath id="61b3f37d1a"><rect height="17" y="0" width="16" x="0"/></clipPath><clipPath id="c012c64114"><path clip-rule="nonzero" d="M 340.234375 446.84375 L 360.332031 446.84375 L 360.332031 462.367188 L 340.234375 462.367188 Z M 340.234375 446.84375"/></clipPath><clipPath id="c56ec996da"><path clip-rule="nonzero" d="M 352.636719 462.277344 C 344.460938 461.6875 343.957031 461.433594 343.28125 460.761719 C 342.273438 459.917969 340.921875 458.230469 340.503906 456.714844 C 340.082031 455.199219 340.417969 453.09375 340.753906 451.828125 C 341.007812 450.902344 341.511719 450.3125 342.019531 449.722656 C 342.609375 449.046875 343.113281 448.542969 343.957031 448.121094 C 345.136719 447.53125 347.160156 446.855469 348.761719 447.023438 C 350.277344 447.191406 352.132812 448.289062 353.140625 449.132812 C 353.902344 449.722656 354.320312 450.3125 354.660156 451.070312 C 355.082031 451.828125 355.417969 452.503906 355.5 453.429688 C 355.585938 454.777344 355.417969 456.882812 354.660156 458.230469 C 353.984375 459.664062 352.300781 461.011719 351.121094 461.601562 C 350.277344 462.109375 349.519531 462.191406 348.761719 462.277344 C 347.917969 462.359375 347.160156 462.445312 346.230469 462.191406 C 344.96875 461.769531 342.945312 460.589844 342.019531 459.664062 C 341.34375 458.992188 341.007812 458.402344 340.753906 457.472656 C 340.417969 456.210938 340.082031 454.101562 340.503906 452.585938 C 340.921875 451.152344 342.019531 449.46875 343.28125 448.542969 C 344.460938 447.613281 346.0625 447.191406 347.917969 447.023438 C 350.277344 446.773438 354.152344 446.855469 356.175781 447.953125 C 357.859375 448.792969 359.125 450.5625 359.800781 451.996094 C 360.304688 453.09375 360.390625 454.441406 360.21875 455.621094 C 360.050781 456.714844 359.628906 457.980469 358.957031 458.992188 C 358.28125 460 357.269531 460.84375 356.175781 461.433594 C 355.164062 461.941406 352.636719 462.277344 352.636719 462.277344"/></clipPath><clipPath id="ff651b748d"><path clip-rule="nonzero" d="M 0.234375 0.84375 L 20.332031 0.84375 L 20.332031 16.367188 L 0.234375 16.367188 Z M 0.234375 0.84375"/></clipPath><clipPath id="cbf88c5326"><path clip-rule="nonzero" d="M 12.636719 16.277344 C 4.460938 15.6875 3.957031 15.433594 3.28125 14.761719 C 2.273438 13.917969 0.921875 12.230469 0.503906 10.714844 C 0.0820312 9.199219 0.417969 7.09375 0.753906 5.828125 C 1.007812 4.902344 1.511719 4.3125 2.019531 3.722656 C 2.609375 3.046875 3.113281 2.542969 3.957031 2.121094 C 5.136719 1.53125 7.160156 0.855469 8.761719 1.023438 C 10.277344 1.191406 12.132812 2.289062 13.140625 3.132812 C 13.902344 3.722656 14.320312 4.3125 14.660156 5.070312 C 15.082031 5.828125 15.417969 6.503906 15.5 7.429688 C 15.585938 8.777344 15.417969 10.882812 14.660156 12.230469 C 13.984375 13.664062 12.300781 15.011719 11.121094 15.601562 C 10.277344 16.109375 9.519531 16.191406 8.761719 16.277344 C 7.917969 16.359375 7.160156 16.445312 6.230469 16.191406 C 4.96875 15.769531 2.945312 14.589844 2.019531 13.664062 C 1.34375 12.992188 1.007812 12.402344 0.753906 11.472656 C 0.417969 10.210938 0.0820312 8.101562 0.503906 6.585938 C 0.921875 5.152344 2.019531 3.46875 3.28125 2.542969 C 4.460938 1.613281 6.0625 1.191406 7.917969 1.023438 C 10.277344 0.773438 14.152344 0.855469 16.175781 1.953125 C 17.859375 2.792969 19.125 4.5625 19.800781 5.996094 C 20.304688 7.09375 20.390625 8.441406 20.21875 9.621094 C 20.050781 10.714844 19.628906 11.980469 18.957031 12.992188 C 18.28125 14 17.269531 14.84375 16.175781 15.433594 C 15.164062 15.941406 12.636719 16.277344 12.636719 16.277344"/></clipPath><clipPath id="4096439fd7"><rect height="17" y="0" width="21" x="0"/></clipPath><clipPath id="32ba8c1d70"><path clip-rule="nonzero" d="M 329.078125 439.140625 L 350.78125 439.140625 L 350.78125 457.519531 L 329.078125 457.519531 Z M 329.078125 439.140625"/></clipPath><clipPath id="925f0b7c1f"><path clip-rule="nonzero" d="M 339.742188 456.714844 C 330.558594 451.324219 330.222656 450.902344 329.882812 450.058594 C 329.464844 448.878906 328.957031 446.773438 329.292969 445.253906 C 329.546875 443.738281 330.8125 441.96875 331.652344 441.042969 C 332.328125 440.367188 332.917969 440.03125 333.761719 439.695312 C 335.023438 439.273438 337.132812 438.933594 338.5625 439.355469 C 340.082031 439.695312 341.765625 441.042969 342.691406 441.96875 C 343.28125 442.644531 343.621094 443.234375 343.871094 444.074219 C 344.210938 445.339844 344.292969 447.699219 344.042969 448.960938 C 343.789062 449.890625 343.535156 450.480469 342.945312 451.152344 C 342.019531 452.164062 340.417969 453.511719 338.984375 454.019531 C 337.46875 454.441406 335.363281 454.1875 334.097656 453.851562 C 333.171875 453.597656 332.582031 453.09375 331.992188 452.585938 C 331.316406 452.082031 330.726562 451.574219 330.304688 450.730469 C 329.714844 449.636719 329.042969 447.613281 329.125 446.097656 C 329.292969 444.496094 330.304688 442.644531 331.0625 441.632812 C 331.652344 440.875 332.328125 440.453125 333.003906 440.03125 C 333.761719 439.695312 334.433594 439.355469 335.363281 439.1875 C 336.625 439.105469 338.394531 439.355469 340.164062 439.863281 C 342.523438 440.703125 346.316406 442.644531 348.003906 444.074219 C 349.097656 445.085938 349.6875 445.929688 350.191406 447.023438 C 350.613281 448.121094 350.78125 449.46875 350.699219 450.648438 C 350.53125 451.828125 350.109375 453.09375 349.433594 454.101562 C 348.761719 455.03125 347.832031 455.957031 346.738281 456.546875 C 345.726562 457.136719 344.460938 457.472656 343.28125 457.472656 C 342.101562 457.472656 339.742188 456.714844 339.742188 456.714844"/></clipPath><clipPath id="567f665668"><path clip-rule="nonzero" d="M 0.078125 0.140625 L 21.78125 0.140625 L 21.78125 18.519531 L 0.078125 18.519531 Z M 0.078125 0.140625"/></clipPath><clipPath id="8512c321c1"><path clip-rule="nonzero" d="M 10.742188 17.714844 C 1.558594 12.324219 1.222656 11.902344 0.882812 11.058594 C 0.464844 9.878906 -0.0429688 7.773438 0.292969 6.253906 C 0.546875 4.738281 1.8125 2.96875 2.652344 2.042969 C 3.328125 1.367188 3.917969 1.03125 4.761719 0.695312 C 6.023438 0.273438 8.132812 -0.0664062 9.5625 0.355469 C 11.082031 0.695312 12.765625 2.042969 13.691406 2.96875 C 14.28125 3.644531 14.621094 4.234375 14.871094 5.074219 C 15.210938 6.339844 15.292969 8.699219 15.042969 9.960938 C 14.789062 10.890625 14.535156 11.480469 13.945312 12.152344 C 13.019531 13.164062 11.417969 14.511719 9.984375 15.019531 C 8.46875 15.441406 6.363281 15.1875 5.097656 14.851562 C 4.171875 14.597656 3.582031 14.09375 2.992188 13.585938 C 2.316406 13.082031 1.726562 12.574219 1.304688 11.730469 C 0.714844 10.636719 0.0429688 8.613281 0.125 7.097656 C 0.292969 5.496094 1.304688 3.644531 2.0625 2.632812 C 2.652344 1.875 3.328125 1.453125 4.003906 1.03125 C 4.761719 0.695312 5.433594 0.355469 6.363281 0.1875 C 7.625 0.105469 9.394531 0.355469 11.164062 0.863281 C 13.523438 1.703125 17.316406 3.644531 19.003906 5.074219 C 20.097656 6.085938 20.6875 6.929688 21.191406 8.023438 C 21.613281 9.121094 21.78125 10.46875 21.699219 11.648438 C 21.53125 12.828125 21.109375 14.09375 20.433594 15.101562 C 19.761719 16.03125 18.832031 16.957031 17.738281 17.546875 C 16.726562 18.136719 15.460938 18.472656 14.28125 18.472656 C 13.101562 18.472656 10.742188 17.714844 10.742188 17.714844"/></clipPath><clipPath id="f27c899014"><rect height="19" y="0" width="22" x="0"/></clipPath><clipPath id="88faccb909"><path clip-rule="nonzero" d="M 321.109375 438.839844 L 341.203125 438.839844 L 341.203125 454.449219 L 321.109375 454.449219 Z M 321.109375 438.839844"/></clipPath><clipPath id="88a87bc6cb"><path clip-rule="nonzero" d="M 333.59375 454.355469 C 325.335938 453.683594 324.828125 453.429688 324.15625 452.839844 C 323.144531 451.910156 321.796875 450.226562 321.375 448.710938 C 320.953125 447.277344 321.289062 445.085938 321.625 443.824219 C 321.964844 442.980469 322.386719 442.390625 322.890625 441.714844 C 323.480469 441.125 323.984375 440.535156 324.828125 440.113281 C 326.007812 439.523438 328.03125 438.933594 329.632812 439.101562 C 331.148438 439.273438 333.003906 440.285156 334.015625 441.125 C 334.773438 441.714844 335.195312 442.390625 335.53125 443.148438 C 335.953125 443.824219 336.289062 444.496094 336.375 445.421875 C 336.457031 446.773438 336.289062 448.960938 335.53125 450.3125 C 334.855469 451.660156 333.171875 453.007812 331.992188 453.683594 C 331.148438 454.101562 330.390625 454.273438 329.632812 454.355469 C 328.789062 454.441406 328.03125 454.441406 327.105469 454.1875 C 325.839844 453.765625 323.902344 452.585938 322.890625 451.660156 C 322.300781 450.984375 321.964844 450.394531 321.625 449.550781 C 321.289062 448.289062 320.953125 446.097656 321.375 444.664062 C 321.796875 443.148438 322.890625 441.546875 324.15625 440.621094 C 325.335938 439.691406 327.019531 439.1875 328.789062 439.019531 C 331.148438 438.765625 335.023438 438.851562 337.132812 439.945312 C 338.734375 440.789062 340.082031 442.558594 340.671875 443.992188 C 341.175781 445.171875 341.261719 446.433594 341.09375 447.613281 C 341.007812 448.792969 340.503906 450.058594 339.828125 450.984375 C 339.152344 451.996094 338.144531 452.921875 337.132812 453.429688 C 336.035156 454.019531 333.59375 454.355469 333.59375 454.355469"/></clipPath><clipPath id="0f6f11a5b9"><path clip-rule="nonzero" d="M 0.109375 0.839844 L 20.203125 0.839844 L 20.203125 16.449219 L 0.109375 16.449219 Z M 0.109375 0.839844"/></clipPath><clipPath id="d8c066a75b"><path clip-rule="nonzero" d="M 12.59375 16.355469 C 4.335938 15.683594 3.828125 15.429688 3.15625 14.839844 C 2.144531 13.910156 0.796875 12.226562 0.375 10.710938 C -0.046875 9.277344 0.289062 7.085938 0.625 5.824219 C 0.964844 4.980469 1.386719 4.390625 1.890625 3.714844 C 2.480469 3.125 2.984375 2.535156 3.828125 2.113281 C 5.007812 1.523438 7.03125 0.933594 8.632812 1.101562 C 10.148438 1.273438 12.003906 2.285156 13.015625 3.125 C 13.773438 3.714844 14.195312 4.390625 14.53125 5.148438 C 14.953125 5.824219 15.289062 6.496094 15.375 7.421875 C 15.457031 8.773438 15.289062 10.960938 14.53125 12.3125 C 13.855469 13.660156 12.171875 15.007812 10.992188 15.683594 C 10.148438 16.101562 9.390625 16.273438 8.632812 16.355469 C 7.789062 16.441406 7.03125 16.441406 6.105469 16.1875 C 4.839844 15.765625 2.902344 14.585938 1.890625 13.660156 C 1.300781 12.984375 0.964844 12.394531 0.625 11.550781 C 0.289062 10.289062 -0.046875 8.097656 0.375 6.664062 C 0.796875 5.148438 1.890625 3.546875 3.15625 2.621094 C 4.335938 1.691406 6.019531 1.1875 7.789062 1.019531 C 10.148438 0.765625 14.023438 0.851562 16.132812 1.945312 C 17.734375 2.789062 19.082031 4.558594 19.671875 5.992188 C 20.175781 7.171875 20.261719 8.433594 20.09375 9.613281 C 20.007812 10.792969 19.503906 12.058594 18.828125 12.984375 C 18.152344 13.996094 17.144531 14.921875 16.132812 15.429688 C 15.035156 16.019531 12.59375 16.355469 12.59375 16.355469"/></clipPath><clipPath id="bb4c25fa41"><rect height="17" y="0" width="21" x="0"/></clipPath><clipPath id="cbb9c5ae81"><path clip-rule="nonzero" d="M 319.453125 435.832031 L 335.09375 435.832031 L 335.09375 452.953125 L 319.453125 452.953125 Z M 319.453125 435.832031"/></clipPath><clipPath id="46a663a805"><path clip-rule="nonzero" d="M 319.519531 443.484375 C 320.445312 439.863281 321.625 438.007812 322.890625 437.164062 C 324.15625 436.324219 326.09375 435.816406 327.609375 435.902344 C 329.125 435.984375 331.0625 436.914062 332.160156 437.671875 C 332.917969 438.261719 333.339844 438.851562 333.761719 439.609375 C 334.183594 440.285156 334.519531 440.957031 334.6875 441.882812 C 334.855469 443.148438 334.601562 445.507812 334.097656 446.6875 C 333.84375 447.613281 333.421875 448.121094 332.75 448.792969 C 331.738281 449.636719 329.714844 450.730469 328.453125 451.070312 C 327.523438 451.320312 326.851562 451.320312 325.925781 451.070312 C 324.660156 450.730469 322.636719 449.636719 321.625 448.792969 C 320.953125 448.121094 320.53125 447.613281 320.277344 446.6875 C 319.773438 445.507812 319.519531 443.148438 319.6875 441.882812 C 319.855469 440.957031 320.109375 440.367188 320.613281 439.609375 C 321.375 438.511719 323.144531 436.996094 324.324219 436.40625 C 325.164062 435.984375 325.839844 435.816406 326.765625 435.902344 C 328.113281 435.902344 330.222656 436.324219 331.484375 437.164062 C 332.75 438.007812 333.84375 439.695312 334.433594 441.042969 C 334.941406 442.390625 335.195312 443.90625 335.023438 445.421875 C 334.773438 447.023438 334.011719 449.214844 332.832031 450.480469 C 331.652344 451.742188 329.546875 452.753906 327.863281 452.921875 C 326.09375 453.007812 323.902344 452.417969 322.554688 451.40625 C 321.121094 450.3125 319.519531 446.6875 319.519531 446.6875"/></clipPath><clipPath id="bfe5bdc6d3"><path clip-rule="nonzero" d="M 0.453125 0.832031 L 16.09375 0.832031 L 16.09375 17.953125 L 0.453125 17.953125 Z M 0.453125 0.832031"/></clipPath><clipPath id="deca0d03cc"><path clip-rule="nonzero" d="M 0.519531 8.484375 C 1.445312 4.863281 2.625 3.007812 3.890625 2.164062 C 5.15625 1.324219 7.09375 0.816406 8.609375 0.902344 C 10.125 0.984375 12.0625 1.914062 13.160156 2.671875 C 13.917969 3.261719 14.339844 3.851562 14.761719 4.609375 C 15.183594 5.285156 15.519531 5.957031 15.6875 6.882812 C 15.855469 8.148438 15.601562 10.507812 15.097656 11.6875 C 14.84375 12.613281 14.421875 13.121094 13.75 13.792969 C 12.738281 14.636719 10.714844 15.730469 9.453125 16.070312 C 8.523438 16.320312 7.851562 16.320312 6.925781 16.070312 C 5.660156 15.730469 3.636719 14.636719 2.625 13.792969 C 1.953125 13.121094 1.53125 12.613281 1.277344 11.6875 C 0.773438 10.507812 0.519531 8.148438 0.6875 6.882812 C 0.855469 5.957031 1.109375 5.367188 1.613281 4.609375 C 2.375 3.511719 4.144531 1.996094 5.324219 1.40625 C 6.164062 0.984375 6.839844 0.816406 7.765625 0.902344 C 9.113281 0.902344 11.222656 1.324219 12.484375 2.164062 C 13.75 3.007812 14.84375 4.695312 15.433594 6.042969 C 15.941406 7.390625 16.195312 8.90625 16.023438 10.421875 C 15.773438 12.023438 15.011719 14.214844 13.832031 15.480469 C 12.652344 16.742188 10.546875 17.753906 8.863281 17.921875 C 7.09375 18.007812 4.902344 17.417969 3.554688 16.40625 C 2.121094 15.3125 0.519531 11.6875 0.519531 11.6875"/></clipPath><clipPath id="172b779332"><rect height="18" y="0" width="17" x="0"/></clipPath><clipPath id="354014d013"><path clip-rule="nonzero" d="M 313.238281 426.332031 L 328.074219 426.332031 L 328.074219 441.59375 L 313.238281 441.59375 Z M 313.238281 426.332031"/></clipPath><clipPath id="271aa3f16d"><path clip-rule="nonzero" d="M 328.03125 431.6875 C 328.03125 436.492188 327.523438 437.671875 326.765625 438.597656 C 326.09375 439.523438 324.996094 440.367188 323.902344 440.875 C 322.890625 441.378906 321.542969 441.632812 320.363281 441.546875 C 319.183594 441.464844 317.917969 441.042969 316.90625 440.453125 C 315.894531 439.863281 314.96875 438.851562 314.296875 437.839844 C 313.707031 436.914062 313.285156 435.5625 313.285156 434.382812 C 313.199219 433.203125 313.453125 431.941406 313.875 430.84375 C 314.378906 429.75 315.222656 428.738281 316.148438 427.980469 C 317.074219 427.222656 318.253906 426.714844 319.433594 426.464844 C 320.613281 426.296875 321.964844 426.378906 323.058594 426.714844 C 324.15625 427.054688 326.175781 428.570312 326.175781 428.570312"/></clipPath><clipPath id="f7244f64b9"><path clip-rule="nonzero" d="M 0.238281 0.332031 L 15.074219 0.332031 L 15.074219 15.59375 L 0.238281 15.59375 Z M 0.238281 0.332031"/></clipPath><clipPath id="cbfc7df904"><path clip-rule="nonzero" d="M 15.03125 5.6875 C 15.03125 10.492188 14.523438 11.671875 13.765625 12.597656 C 13.09375 13.523438 11.996094 14.367188 10.902344 14.875 C 9.890625 15.378906 8.542969 15.632812 7.363281 15.546875 C 6.183594 15.464844 4.917969 15.042969 3.90625 14.453125 C 2.894531 13.863281 1.96875 12.851562 1.296875 11.839844 C 0.707031 10.914062 0.285156 9.5625 0.285156 8.382812 C 0.199219 7.203125 0.453125 5.941406 0.875 4.84375 C 1.378906 3.75 2.222656 2.738281 3.148438 1.980469 C 4.074219 1.222656 5.253906 0.714844 6.433594 0.464844 C 7.613281 0.296875 8.964844 0.378906 10.058594 0.714844 C 11.15625 1.054688 13.175781 2.570312 13.175781 2.570312"/></clipPath><clipPath id="dce8bbcd67"><rect height="16" y="0" width="16" x="0"/></clipPath><clipPath id="41fb9e0463"><rect height="631" y="0" width="399" x="0"/></clipPath></defs><rect fill-opacity="1" height="971.999992" y="-80.999999" fill="#ffffff" width="972" x="-81"/><rect fill-opacity="1" height="971.999992" y="-80.999999" fill="#ffffff" width="972" x="-81"/><g transform="matrix(1, 0, 0, 1, 222, 80)"><g clip-path="url(#41fb9e0463)"><g clip-path="url(#9fca0d7b3b)"><g clip-path="url(#2337e7a038)"><g transform="matrix(1, 0, 0, 1, 87, 3)"><g clip-path="url(#71b6e418ba)"><g clip-path="url(#43a58f0f11)"><g clip-path="url(#49fb165258)"><rect fill-opacity="1" height="1399.679988" y="-377.839997" fill="#1e1e1e" width="1399.68" x="-603.84"/></g></g></g></g></g></g><g clip-path="url(#94936b2d1a)"><g clip-path="url(#cdc153eb42)"><g transform="matrix(1, 0, 0, 1, 4, 184)"><g clip-path="url(#671bedcc33)"><g clip-path="url(#2555c9b662)"><g clip-path="url(#113fd42a66)"><rect fill-opacity="1" height="1399.679988" y="-558.839997" fill="#1e1e1e" width="1399.68" x="-520.84"/></g></g></g></g></g></g><g clip-path="url(#01df616c62)"><g clip-path="url(#c7379e8c39)"><g transform="matrix(1, 0, 0, 1, 341, 440)"><g clip-path="url(#3a4e17cd34)"><g clip-path="url(#46a6a6cfcc)"><g clip-path="url(#c4817d77aa)"><rect fill-opacity="1" height="1399.679988" y="-814.839997" fill="#ffffff" width="1399.68" x="-857.84"/></g></g></g></g></g></g><g clip-path="url(#a41bac67f4)"><g clip-path="url(#2d4f00a188)"><g transform="matrix(1, 0, 0, 1, 330, 434)"><g clip-path="url(#e77aec6204)"><g clip-path="url(#5fcbea5e39)"><g clip-path="url(#f7fdd0dab3)"><rect fill-opacity="1" height="1399.679988" y="-808.839997" fill="#ffffff" width="1399.68" x="-846.84"/></g></g></g></g></g></g><g clip-path="url(#e1e8b03817)"><g clip-path="url(#371fb1bb6c)"><g transform="matrix(1, 0, 0, 1, 327, 437)"><g clip-path="url(#634f78cf29)"><g clip-path="url(#e4dceaace7)"><g clip-path="url(#10c0422472)"><rect fill-opacity="1" height="1399.679988" y="-811.839997" fill="#ffffff" width="1399.68" x="-843.84"/></g></g></g></g></g></g><g clip-path="url(#e3f5f30708)"><g clip-path="url(#bf9740a37b)"><g transform="matrix(1, 0, 0, 1, 327, 440)"><g clip-path="url(#662fc9e321)"><g clip-path="url(#499880206a)"><g clip-path="url(#ef562ee38c)"><rect fill-opacity="1" height="1399.679988" y="-814.839997" fill="#ffffff" width="1399.68" x="-843.84"/></g></g></g></g></g></g><g clip-path="url(#f08eeb1f39)"><g clip-path="url(#00fd11e0e9)"><g transform="matrix(1, 0, 0, 1, 338, 448)"><g clip-path="url(#e8bf2655b5)"><g clip-path="url(#3fadd9a550)"><g clip-path="url(#753b6dc0ca)"><rect fill-opacity="1" height="1399.679988" y="-822.839997" fill="#ffffff" width="1399.68" x="-854.84"/></g></g></g></g></g></g><g clip-path="url(#6dceda02ee)"><g clip-path="url(#d73715f4c2)"><g transform="matrix(1, 0, 0, 1, 343, 451)"><g clip-path="url(#61b3f37d1a)"><g clip-path="url(#02491de2ee)"><g clip-path="url(#ee14c78bde)"><rect fill-opacity="1" height="1399.679988" y="-825.839997" fill="#ffffff" width="1399.68" x="-859.84"/></g></g></g></g></g></g><g clip-path="url(#c012c64114)"><g clip-path="url(#c56ec996da)"><g transform="matrix(1, 0, 0, 1, 340, 446)"><g clip-path="url(#4096439fd7)"><g clip-path="url(#ff651b748d)"><g clip-path="url(#cbf88c5326)"><rect fill-opacity="1" height="1399.679988" y="-820.839997" fill="#ffffff" width="1399.68" x="-856.84"/></g></g></g></g></g></g><g clip-path="url(#32ba8c1d70)"><g clip-path="url(#925f0b7c1f)"><g transform="matrix(1, 0, 0, 1, 329, 439)"><g clip-path="url(#f27c899014)"><g clip-path="url(#567f665668)"><g clip-path="url(#8512c321c1)"><rect fill-opacity="1" height="1399.679988" y="-813.839997" fill="#ffffff" width="1399.68" x="-845.84"/></g></g></g></g></g></g><g clip-path="url(#88faccb909)"><g clip-path="url(#88a87bc6cb)"><g transform="matrix(1, 0, 0, 1, 321, 438)"><g clip-path="url(#bb4c25fa41)"><g clip-path="url(#0f6f11a5b9)"><g clip-path="url(#d8c066a75b)"><rect fill-opacity="1" height="1399.679988" y="-812.839997" fill="#ffffff" width="1399.68" x="-837.84"/></g></g></g></g></g></g><g clip-path="url(#cbb9c5ae81)"><g clip-path="url(#46a663a805)"><g transform="matrix(1, 0, 0, 1, 319, 435)"><g clip-path="url(#172b779332)"><g clip-path="url(#bfe5bdc6d3)"><g clip-path="url(#deca0d03cc)"><rect fill-opacity="1" height="1399.679988" y="-809.839997" fill="#ffffff" width="1399.68" x="-835.84"/></g></g></g></g></g></g><g clip-path="url(#354014d013)"><g clip-path="url(#271aa3f16d)"><g transform="matrix(1, 0, 0, 1, 313, 426)"><g clip-path="url(#dce8bbcd67)"><g clip-path="url(#f7244f64b9)"><g clip-path="url(#cbfc7df904)"><rect fill-opacity="1" height="1399.679988" y="-800.839997" fill="#ffffff" width="1399.68" x="-829.84"/></g></g></g></g></g></g></g></g></svg>